<?xml version="1.0" standalone="no"?>
<!DOCTYPE svg PUBLIC "-//W3C//DTD SVG 20010904//EN"
 "http://www.w3.org/TR/2001/REC-SVG-20010904/DTD/svg10.dtd">
<svg version="1.0" xmlns="http://www.w3.org/2000/svg"
 width="960.000000pt" height="960.000000pt" viewBox="0 0 960.000000 960.000000"
 preserveAspectRatio="xMidYMid meet">
<metadata>
Created by potrace 1.11, written by Peter Selinger 2001-2013
</metadata>
<g transform="translate(0.000000,960.000000) scale(0.100000,-0.100000)"
fill="#000000" stroke="none">
<path d="M20 7742 c0 -12 4 -30 9 -40 5 -9 17 -35 26 -57 28 -68 32 -79 50
-120 34 -79 158 -322 178 -349 4 -6 30 -49 57 -95 44 -74 155 -235 185 -267 5
-7 26 -31 45 -55 38 -48 207 -219 255 -259 75 -61 115 -90 124 -90 5 0 11 -4
13 -9 2 -4 46 -33 98 -63 137 -78 293 -134 430 -154 25 -3 56 -8 70 -10 39 -6
204 -5 262 2 99 11 233 44 366 89 7 3 14 5 17 5 3 0 42 18 87 39 l83 38 0
-216 0 -216 89 0 c48 0 91 4 94 10 4 5 8 96 8 200 1 105 2 196 3 203 1 10 7
10 29 -2 109 -59 327 -129 442 -142 19 -2 51 -6 70 -8 120 -16 295 -4 423 30
50 13 99 26 107 28 30 8 166 71 211 98 25 15 49 28 53 28 4 0 12 5 19 10 7 6
37 28 67 50 30 22 69 50 85 62 63 47 263 257 333 348 39 52 75 100 80 105 4 6
22 33 39 60 18 28 36 55 41 60 4 6 11 17 15 25 4 8 24 44 46 80 54 89 135 247
183 355 53 119 100 248 88 240 -5 -3 -52 -34 -104 -69 -52 -35 -115 -72 -140
-82 -25 -11 -46 -22 -46 -26 0 -5 -6 -8 -12 -8 -7 0 -25 -6 -39 -14 -54 -28
-228 -78 -314 -90 -22 -3 -51 -8 -65 -11 -14 -4 -128 -8 -255 -10 -244 -4
-474 -13 -515 -19 -14 -2 -46 -7 -71 -10 -61 -9 -96 -15 -144 -27 -22 -5 -49
-12 -60 -14 -105 -24 -214 -67 -309 -122 -76 -44 -237 -247 -282 -357 -10 -25
-22 -46 -26 -46 -5 0 -8 -5 -8 -12 0 -17 -44 -128 -50 -128 -3 0 -12 17 -19
38 -80 226 -214 416 -364 514 -61 41 -209 94 -352 126 -176 40 -290 49 -710
56 -242 4 -275 8 -455 45 -51 11 -195 62 -231 82 -13 7 -26 13 -29 14 -23 2
-256 148 -272 170 -4 6 -8 0 -8 -13z m4449 -479 c-12 -20 -112 -93 -126 -93
-5 0 -15 -6 -21 -12 -7 -7 -16 -13 -20 -14 -4 0 -33 -13 -65 -28 -32 -15 -63
-29 -70 -30 -7 -2 -25 -8 -42 -15 -100 -40 -282 -90 -420 -117 -22 -4 -44 -8
-50 -10 -8 -1 -124 -22 -285 -50 -14 -2 -41 -7 -60 -9 -230 -34 -480 -109
-595 -178 -64 -39 -143 -110 -178 -162 -25 -37 -27 -38 -27 -14 0 89 101 226
223 303 53 33 164 85 195 91 9 1 35 8 57 13 22 6 60 13 85 16 73 8 141 15 210
21 35 3 78 8 95 10 16 3 55 7 85 10 30 3 66 7 79 10 13 2 42 5 65 6 22 1 45 4
50 7 5 3 23 6 40 8 17 1 47 5 66 9 19 3 49 8 65 11 17 2 55 9 85 15 30 7 62
13 70 14 8 2 15 4 15 5 0 1 9 3 20 5 41 7 114 27 155 42 8 3 24 8 35 10 11 2
24 8 29 13 6 6 20 10 32 10 12 0 24 3 26 8 2 4 27 18 56 31 28 14 52 28 52 33
0 4 6 8 13 8 8 0 24 9 37 20 28 25 34 25 19 3z m-3983 -10 c35 -32 244 -132
244 -117 0 3 10 -1 22 -7 21 -11 62 -23 118 -35 14 -3 34 -8 45 -11 24 -8 40
-11 84 -18 18 -2 41 -7 50 -9 25 -8 71 -16 126 -22 28 -3 53 -8 56 -10 3 -2
33 -6 65 -9 32 -4 73 -9 89 -11 17 -3 50 -7 75 -9 25 -3 65 -7 90 -10 25 -2
74 -8 110 -11 36 -3 79 -7 95 -9 247 -24 401 -85 531 -209 49 -47 116 -144
109 -156 -3 -5 -1 -11 5 -15 5 -3 10 -21 9 -38 l0 -32 -22 29 c-34 46 -92 102
-140 135 -52 36 -159 91 -187 96 -11 2 -25 7 -30 10 -10 6 -170 54 -205 61
-11 2 -31 6 -45 9 -14 3 -43 8 -65 11 -22 3 -47 8 -55 10 -8 3 -31 8 -50 10
-40 5 -83 12 -120 19 -14 2 -41 7 -60 9 -75 11 -109 18 -325 66 -88 20 -249
65 -280 80 -17 7 -56 21 -75 25 -10 3 -65 27 -80 36 -8 5 -33 18 -55 29 -22
11 -51 27 -65 35 -36 20 -107 84 -94 85 5 0 19 -8 30 -17z"/>
<path d="M1289 6113 c-1 -4 -2 -123 -4 -263 -2 -263 3 -300 39 -300 8 0 16 -3
18 -7 8 -19 182 -89 283 -114 22 -5 48 -12 58 -14 9 -3 26 -7 38 -10 11 -2 28
-6 37 -9 9 -3 37 -8 62 -11 25 -3 56 -7 70 -10 14 -3 72 -7 130 -10 58 -3 122
-6 143 -8 21 -1 43 0 49 4 5 4 25 3 44 -1 19 -4 36 -5 38 -1 5 8 629 6 726 -3
85 -7 246 -39 257 -50 13 -12 -175 -75 -276 -92 -14 -3 -34 -7 -43 -10 -10 -3
-29 -7 -42 -10 -13 -2 -68 -13 -122 -24 -55 -12 -115 -23 -134 -26 -19 -3 -38
-8 -42 -11 -5 -2 -8 -105 -8 -229 l0 -225 28 4 c15 3 55 10 90 16 35 7 75 14
90 16 15 2 74 13 132 25 58 11 116 23 130 26 73 14 193 51 250 76 79 36 123
68 159 118 l27 37 -1 304 c-1 296 -2 305 -24 352 -21 43 -103 127 -125 127 -5
0 -17 6 -25 13 -22 18 -116 47 -196 61 -82 15 -204 19 -643 21 -262 2 -499 5
-527 9 -27 3 -68 8 -90 11 -22 3 -58 8 -79 11 -22 3 -43 7 -47 9 -4 3 -24 7
-45 11 -22 3 -47 10 -56 15 -9 5 -21 8 -25 8 -9 -2 -21 2 -113 39 -83 33 -145
67 -192 104 -21 16 -39 25 -39 21z"/>
<path d="M3928 5879 c-65 -18 -112 -59 -150 -131 l-22 -43 -1 -1039 0 -1040
208 0 c115 -1 213 2 218 5 5 3 10 386 11 904 l3 899 48 -189 c26 -105 49 -197
52 -205 24 -93 81 -322 94 -377 5 -21 13 -50 19 -64 6 -15 9 -29 6 -31 -2 -3
3 -21 11 -41 8 -21 13 -37 10 -37 -2 0 0 -11 5 -25 5 -14 12 -36 14 -48 15
-82 198 -782 205 -786 7 -5 383 -6 452 -2 11 1 20 14 24 39 10 47 6 29 55 217
22 88 43 167 45 175 2 8 15 62 30 120 15 58 28 112 30 120 2 8 17 69 34 135
18 66 34 134 37 150 3 17 10 38 15 48 5 9 8 17 5 17 -2 0 5 33 15 73 11 39 22
80 24 90 2 10 7 27 10 37 3 10 8 27 10 38 2 11 22 94 45 184 23 90 53 205 66
257 13 52 25 95 27 97 2 2 3 -401 3 -896 -1 -593 2 -900 9 -901 6 -1 103 -2
218 -2 178 -2 207 0 208 13 0 8 1 517 1 1130 l1 1115 -344 2 -345 2 -54 -212
c-30 -117 -55 -214 -55 -217 -1 -3 -4 -14 -8 -25 -3 -11 -8 -31 -11 -45 -3
-14 -17 -70 -32 -125 -14 -55 -27 -107 -29 -115 -2 -8 -20 -78 -41 -155 -20
-77 -38 -147 -39 -155 -1 -8 -5 -22 -8 -30 -5 -14 -18 -64 -22 -85 -1 -5 -3
-12 -4 -15 -2 -3 -4 -12 -6 -20 -2 -8 -17 -69 -34 -135 -32 -122 -38 -144 -45
-181 -2 -11 -11 -43 -19 -70 -8 -27 -15 -52 -16 -56 -1 -5 -4 -22 -8 -39 -9
-48 -10 -45 -94 271 -7 25 -13 50 -15 55 -1 6 -13 53 -27 105 -39 144 -63 236
-122 460 -52 196 -63 240 -100 374 -8 33 -17 67 -19 75 -2 9 -5 23 -8 31 -6
16 -63 236 -74 282 l-6 27 -241 -1 c-133 0 -254 -4 -269 -9z"/>
<path d="M7374 5871 c-56 -22 -109 -75 -134 -132 -21 -50 -21 -56 -22 -807 0
-440 -4 -769 -10 -786 -5 -17 -10 -37 -12 -44 -8 -41 -82 -105 -139 -119 -52
-13 -175 -7 -223 11 -62 23 -88 47 -116 105 -20 42 -22 61 -23 216 l0 170
-220 0 -220 0 1 -190 c1 -105 4 -208 7 -230 8 -55 41 -147 69 -194 23 -39 93
-121 103 -121 3 0 15 -8 25 -18 57 -53 210 -108 350 -127 72 -10 254 -12 305
-4 22 4 59 9 82 13 118 15 272 94 344 174 91 101 121 187 135 384 4 56 8 1617
5 1700 -1 16 -14 18 -135 16 -94 -1 -145 -6 -172 -17z"/>
<path d="M8743 5852 c-16 -21 -37 -55 -48 -75 -11 -20 -23 -37 -27 -37 -5 0
-8 -5 -8 -10 0 -9 -21 -43 -135 -220 -12 -19 -51 -80 -85 -135 -100 -159 -120
-189 -130 -205 -24 -36 -78 -122 -235 -370 l-168 -265 -1 -202 c-1 -194 0
-202 19 -205 11 -2 227 -3 480 -3 253 1 466 0 472 -3 10 -3 13 -46 12 -171 0
-91 0 -202 0 -246 l1 -80 217 2 c120 0 221 2 224 2 3 1 6 111 5 246 -1 156 3
246 9 247 6 0 64 2 130 2 l120 1 3 190 2 191 -130 -1 c-82 0 -130 3 -131 10 0
5 -2 280 -3 610 -2 330 -5 607 -8 615 -14 43 -29 67 -54 91 -56 51 -66 53
-291 56 l-213 3 -27 -38z m152 -869 l0 -488 -313 -2 c-275 -2 -312 0 -302 12
7 8 9 15 4 15 -5 0 -4 4 2 8 5 4 34 45 63 92 78 127 228 364 238 375 4 6 17
26 27 45 11 19 46 75 78 123 32 49 58 91 58 94 0 2 13 23 29 46 15 23 46 70
67 104 21 35 41 63 44 63 3 0 5 -219 5 -487z"/>
<path d="M2377 5311 c-3 -6 -1 -796 2 -833 1 -12 9 -17 24 -17 12 0 54 -2 92
-6 l71 -7 0 436 0 436 -93 -2 c-52 -1 -95 -4 -96 -7z"/>
<path d="M2285 5069 c-16 -5 -41 -11 -55 -13 -61 -11 -178 -37 -210 -48 -19
-6 -42 -13 -50 -14 -28 -5 -45 -10 -55 -15 -5 -4 -23 -9 -40 -13 -104 -24
-233 -124 -276 -213 -22 -46 -23 -57 -24 -325 l-1 -276 30 -24 c30 -23 121
-66 153 -71 10 -1 23 -5 28 -9 9 -5 53 -13 135 -23 19 -2 78 -7 130 -10 52 -3
120 -8 150 -10 30 -3 80 -8 110 -10 96 -8 174 -16 190 -20 8 -2 38 -7 65 -10
28 -3 91 -15 140 -25 119 -27 124 -28 169 -44 35 -12 37 -15 20 -23 -22 -12
-109 -41 -145 -49 -13 -3 -28 -6 -34 -7 -5 -2 -14 -5 -20 -8 -5 -4 -27 -9 -47
-13 l-38 -7 0 -211 0 -210 33 6 c17 4 43 9 57 12 14 2 48 9 75 14 28 5 66 12
85 15 19 3 51 10 70 15 19 5 51 11 70 14 65 11 110 24 125 36 8 7 15 9 15 6 0
-15 61 37 73 62 10 21 13 93 13 302 -1 268 -2 276 -24 312 -70 112 -257 198
-487 223 -16 2 -50 6 -75 10 -25 3 -67 8 -95 10 -153 14 -301 29 -383 40 -161
21 -199 27 -251 39 l-35 8 56 24 c52 22 198 67 254 79 13 3 36 8 52 11 15 3
37 7 50 8 12 2 28 8 33 13 9 9 13 166 9 421 0 35 0 35 -45 21z"/>
<path d="M2384 3942 c-13 -10 -12 -838 1 -850 10 -9 139 -59 165 -64 12 -3 14
56 15 440 0 293 -3 446 -10 450 -11 7 -12 7 -90 17 -33 3 -62 8 -65 10 -3 2
-10 1 -16 -3z"/>
<path d="M2280 3684 c-19 -9 -55 -22 -80 -31 -24 -8 -59 -27 -77 -40 -18 -14
-33 -22 -33 -18 0 21 -73 -87 -91 -135 -19 -50 -21 -76 -22 -290 0 -159 3
-242 11 -257 22 -40 89 -82 223 -140 74 -32 137 -61 140 -66 3 -5 9 -8 13 -7
8 2 164 -77 186 -94 8 -7 29 -18 45 -26 17 -8 67 -52 113 -97 45 -45 81 -79
78 -75 -2 4 -7 36 -11 72 -18 157 -31 214 -72 325 -32 85 -94 150 -174 181
-29 12 -92 37 -139 55 -131 51 -288 148 -274 170 10 17 199 91 208 81 6 -5 7
25 7 208 1 173 -1 200 -8 200 -5 -1 -24 -8 -43 -16z"/>
<path d="M8940 3363 c-140 -36 -222 -133 -222 -262 0 -120 48 -198 153 -252
32 -16 61 -29 64 -29 3 0 10 -2 17 -5 7 -2 40 -13 73 -24 154 -51 193 -82 210
-168 7 -32 9 -65 5 -73 -23 -49 -46 -87 -59 -98 -42 -34 -97 -54 -157 -57 -85
-4 -144 17 -200 71 -25 24 -50 44 -57 44 -7 0 -27 -13 -44 -28 l-33 -27 28
-30 c130 -146 410 -160 538 -28 56 57 77 114 78 203 0 149 -60 209 -279 280
-152 49 -209 86 -233 151 -27 69 4 170 65 215 56 42 181 54 255 26 14 -6 42
-27 62 -47 l37 -36 40 32 41 32 -38 37 c-80 74 -222 105 -344 73z"/>
<path d="M4613 3280 c-18 -41 -38 -84 -43 -95 -54 -120 -70 -159 -70 -171 0
-8 -4 -14 -10 -14 -5 0 -9 -3 -8 -7 1 -5 -4 -21 -11 -37 -15 -38 -67 -158 -94
-216 -11 -25 -39 -90 -63 -145 l-42 -99 -26 58 c-14 32 -26 60 -26 62 0 1 -13
31 -29 66 -16 35 -57 128 -91 208 -33 80 -68 159 -76 175 -8 17 -38 86 -67
155 l-53 125 -75 3 -74 3 0 -508 1 -508 48 0 48 0 0 443 c0 244 2 442 5 439 4
-5 89 -189 93 -205 2 -4 14 -32 27 -62 14 -30 32 -71 40 -90 8 -19 28 -63 44
-98 16 -35 29 -65 29 -67 0 -2 11 -28 24 -57 13 -29 34 -75 45 -103 12 -27 26
-59 31 -70 5 -11 20 -46 35 -78 41 -95 54 -84 142 118 40 94 80 184 88 202 8
17 15 34 15 37 0 3 13 34 29 68 15 35 54 124 86 198 67 159 94 217 96 210 0
-3 2 -203 2 -445 l2 -440 47 -3 47 -3 -2 305 c-1 169 2 306 6 306 5 0 5 5 1
11 -3 6 -6 98 -5 204 l1 193 -67 4 -66 3 -34 -75z"/>
<path d="M5595 3352 c-20 -3 -20 -10 -18 -500 0 -273 2 -503 2 -509 1 -10 72
-13 320 -13 344 0 328 -3 327 55 l-1 30 -255 2 c-140 1 -265 2 -276 2 -21 1
-21 4 -20 198 l1 198 245 0 245 0 3 43 3 42 -38 1 c-21 0 -133 1 -249 1 l-211
0 1 182 1 181 257 0 c141 0 259 2 262 5 9 10 14 57 7 68 -5 8 -92 13 -297 14
-159 2 -298 2 -309 0z"/>
<path d="M7023 2840 l0 -511 203 1 c224 2 300 13 400 61 51 25 130 89 171 141
71 91 109 279 83 410 -34 174 -154 323 -300 371 -89 29 -147 36 -346 37 l-211
1 0 -511z m453 405 c102 -26 153 -54 216 -120 111 -116 135 -327 55 -494 -17
-36 -107 -131 -123 -131 -8 0 -14 -4 -14 -9 0 -8 -97 -48 -135 -55 -84 -15
-123 -18 -226 -18 -64 0 -121 2 -125 5 -7 4 -11 755 -5 833 2 17 275 9 357
-11z"/>
<path d="M2378 2637 c-4 -10 -3 -167 1 -240 1 -23 57 -80 71 -72 5 3 10 2 10
-4 0 -6 7 -8 15 -5 8 3 32 7 52 7 l38 2 0 112 0 112 -35 19 c-19 10 -60 33
-92 50 -38 22 -57 28 -60 19z"/>
</g>
</svg>
