<?xml version="1.0" encoding="utf-8"?>
<!-- Generator: Adobe Illustrator 16.0.4, SVG Export Plug-In . SVG Version: 6.00 Build 0)  -->
<!DOCTYPE svg PUBLIC "-//W3C//DTD SVG 1.1//EN" "http://www.w3.org/Graphics/SVG/1.1/DTD/svg11.dtd">
<svg version="1.1" id="Layer_1" xmlns="http://www.w3.org/2000/svg" xmlns:xlink="http://www.w3.org/1999/xlink" x="0px" y="0px"
	 width="240px" height="180px" viewBox="0 0 240 180" enable-background="new 0 0 240 180" xml:space="preserve">
<g>
	<g>
		<path fill="#231F20" d="M99.682,62.797h11.223l11.391,43.062l11.054-43.062h17.208v56.53h-10.894V73.689l-11.552,45.638h-11.804
			l-11.555-45.638v45.638H93.862V68.868C93.862,65.625,96.44,62.797,99.682,62.797z"/>
		<path fill="#231F20" d="M186.299,62.797h5.738v39.486c0,2.993-0.251,5.651-0.665,7.814c-1.916,7.232-8.646,10.06-17.043,10.06
			c-8.146,0-15.213-2.827-17.206-9.562c-0.582-1.328-0.832-4.072-0.832-8.312v-4.406h11.056v6.815c0,3.992,2.243,5.99,6.817,5.99
			c4.239,0,6.317-2.163,6.317-6.486V68.701C180.481,65.625,183.145,62.797,186.299,62.797z"/>
		<path fill="#231F20" d="M222.208,106.857h-24.522V96.632l21.447-33.834h8.562c3.823,0,5.737,1.996,5.737,5.903V97.38h6.815v9.478
			h-6.815v12.47h-11.225V106.857z M222.377,72.857l-15.711,24.856h15.711V72.857z"/>
	</g>
	<g>
		<path fill="#231F20" d="M93.917,126.212h3.566l9.296,21.404l9.296-21.404h3.389v25.511h-2.379v-22.483h-0.072l-9.729,22.483
			h-1.046l-9.872-22.483h-0.072v22.483h-2.377V126.212z"/>
		<path fill="#231F20" d="M139.425,126.212h15.604v2.161h-13.225v9.08h12.395v2.16h-12.395v9.948h13.8v2.161h-16.179V126.212z"/>
		<path fill="#231F20" d="M175.565,126.212h7.888c2.211,0,4.086,0.27,5.623,0.81c1.538,0.539,2.817,1.234,3.834,2.071
			c1.024,0.843,1.828,1.773,2.418,2.794c0.586,1.02,1.019,2.001,1.296,2.938c0.277,0.935,0.451,1.781,0.523,2.538
			c0.071,0.761,0.106,1.293,0.106,1.604c0,0.314-0.035,0.847-0.106,1.604c-0.072,0.758-0.246,1.603-0.523,2.541
			c-0.277,0.938-0.71,1.915-1.296,2.938c-0.59,1.021-1.394,1.95-2.418,2.793c-1.017,0.839-2.296,1.53-3.834,2.07
			c-1.537,0.541-3.412,0.811-5.623,0.811h-7.888V126.212z M177.94,149.562h4.901c1.683,0,3.256-0.21,4.72-0.631
			c1.464-0.42,2.738-1.062,3.819-1.928c1.081-0.864,1.935-1.963,2.56-3.297c0.625-1.333,0.937-2.913,0.937-4.739
			c0-1.825-0.312-3.405-0.937-4.738c-0.625-1.332-1.479-2.434-2.56-3.297s-2.355-1.508-3.819-1.928
			c-1.464-0.422-3.037-0.631-4.72-0.631h-4.901V149.562z"/>
		<path fill="#231F20" d="M219.487,147.003c0.625,1.08,1.436,1.886,2.434,2.414c0.994,0.529,2.13,0.793,3.406,0.793
			c0.791,0,1.535-0.122,2.233-0.36c0.694-0.242,1.301-0.577,1.82-1.008c0.516-0.433,0.924-0.956,1.222-1.567
			c0.303-0.614,0.452-1.303,0.452-2.073c0-0.891-0.186-1.624-0.558-2.197c-0.374-0.577-0.871-1.053-1.497-1.424
			c-0.623-0.374-1.328-0.688-2.107-0.954c-0.78-0.267-1.585-0.529-2.414-0.795c-0.829-0.264-1.635-0.562-2.415-0.897
			c-0.779-0.34-1.483-0.776-2.109-1.316c-0.624-0.541-1.121-1.221-1.492-2.038c-0.374-0.815-0.559-1.824-0.559-3.027
			c0-1.127,0.221-2.13,0.666-3.009c0.444-0.875,1.044-1.606,1.803-2.195c0.756-0.589,1.626-1.033,2.611-1.334
			c0.985-0.302,2.019-0.45,3.097-0.45c1.396,0,2.688,0.245,3.876,0.739c1.19,0.49,2.217,1.314,3.081,2.467l-2.056,1.479
			c-0.598-0.841-1.302-1.474-2.106-1.894c-0.805-0.419-1.759-0.632-2.867-0.632c-0.766,0-1.499,0.104-2.195,0.309
			c-0.696,0.202-1.305,0.502-1.822,0.898c-0.516,0.398-0.93,0.895-1.241,1.497c-0.313,0.601-0.469,1.309-0.469,2.124
			c0,1.276,0.324,2.253,0.974,2.937c0.647,0.687,1.461,1.226,2.435,1.622c0.969,0.396,2.026,0.745,3.168,1.047
			c1.142,0.3,2.197,0.702,3.171,1.207c0.974,0.504,1.783,1.206,2.433,2.106c0.65,0.902,0.973,2.146,0.973,3.73
			c0,1.153-0.217,2.173-0.648,3.063c-0.433,0.89-1.016,1.638-1.746,2.251c-0.733,0.612-1.582,1.076-2.543,1.387
			c-0.96,0.314-1.956,0.469-2.991,0.469c-1.68,0-3.23-0.295-4.646-0.882c-1.418-0.589-2.631-1.579-3.642-2.972L219.487,147.003z"/>
	</g>
	<path fill="#231F20" d="M73.971,26.964C62.68,31.002,59.814,49.192,59.814,49.192c43.73,26.051,62.975-33.314,62.975-33.314
		C104.633,29.732,93.889,19.839,73.971,26.964z M111.464,28.751c-0.301,0.273-0.757,0.655-1.375,1.094
		c-1.224,0.893-3.135,1.941-5.539,2.91c-2.403,0.968-5.289,1.883-8.43,2.627c-3.138,0.752-6.516,1.394-9.896,1.958
		c-1.692,0.274-3.379,0.55-5.045,0.82c-1.685,0.249-3.247,0.544-4.729,0.935c-2.958,0.783-5.632,1.629-7.733,2.779
		c-1.046,0.566-1.968,1.166-2.728,1.778c-0.766,0.607-1.376,1.218-1.85,1.755c-0.471,0.541-0.803,1.009-1.015,1.34
		c-0.218,0.331-0.304,0.518-0.304,0.518c-0.034,0.073-0.121,0.106-0.197,0.071c-0.054-0.025-0.085-0.077-0.085-0.132v-0.008
		c0,0-0.009-0.93,0.634-2.391c0.309-0.733,0.8-1.576,1.489-2.455c0.689-0.883,1.6-1.767,2.701-2.591
		c1.102-0.82,2.397-1.562,3.832-2.169c1.433-0.608,3.011-1.058,4.657-1.333c1.649-0.279,3.373-0.383,5.02-0.546
		c1.673-0.152,3.366-0.317,5.057-0.505c3.38-0.367,6.746-0.806,9.869-1.368c3.122-0.571,6.017-1.208,8.426-1.99
		c2.412-0.77,4.332-1.661,5.599-2.415c0.632-0.375,1.109-0.708,1.422-0.947c0.313-0.242,0.48-0.371,0.48-0.371l0.007-0.006
		c0.062-0.049,0.154-0.038,0.203,0.025c0.046,0.061,0.039,0.145-0.016,0.195C111.918,28.329,111.76,28.477,111.464,28.751z"/>
	<path fill="#231F20" d="M49.064,26.964c-19.918-7.125-30.664,2.768-48.816-11.085c0,0,19.243,59.365,62.972,33.314
		C63.22,49.192,60.356,31.002,49.064,26.964z M60.347,47.35c-0.058,0-0.11-0.034-0.131-0.085c0,0-0.086-0.187-0.306-0.518
		c-0.212-0.331-0.544-0.799-1.014-1.338c-0.476-0.538-1.084-1.149-1.852-1.756c-0.759-0.611-1.682-1.212-2.73-1.778
		c-2.099-1.149-4.775-1.996-7.731-2.779c-1.482-0.391-3.045-0.686-4.729-0.935c-1.664-0.27-3.354-0.546-5.043-0.82
		c-3.381-0.566-6.761-1.206-9.898-1.958c-3.14-0.746-6.026-1.659-8.431-2.627c-2.403-0.969-4.312-2.017-5.538-2.91
		c-0.616-0.439-1.073-0.821-1.373-1.094c-0.298-0.274-0.456-0.422-0.456-0.422c-0.058-0.053-0.062-0.146-0.009-0.204
		c0.052-0.057,0.136-0.064,0.195-0.018l0.007,0.007c0,0,0.167,0.129,0.48,0.371c0.314,0.239,0.79,0.572,1.425,0.947
		c1.264,0.754,3.186,1.646,5.599,2.415c2.406,0.783,5.303,1.419,8.424,1.99c3.125,0.562,6.491,1.001,9.869,1.368
		c1.689,0.188,3.384,0.354,5.055,0.505c1.65,0.163,3.372,0.267,5.019,0.546c1.647,0.274,3.226,0.725,4.657,1.333
		c1.434,0.607,2.731,1.349,3.833,2.169c1.102,0.824,2.012,1.708,2.701,2.591c0.689,0.879,1.181,1.722,1.489,2.455
		c0.643,1.461,0.634,2.391,0.634,2.391v0.008C60.496,47.285,60.429,47.35,60.347,47.35z"/>
	<g>
		<path fill="#231F20" d="M87.89,83.285V71.134c0,0,0.544-6.799-11.695-7.798c-12.241-0.996-33.274,2.691-44.066-6.377v13.511
			c0,0,1.771,2.422,12.002,4.665C58.151,78.208,85.894,71.226,87.89,83.285z"/>
	</g>
	<g>
		<path fill="#231F20" d="M64.133,62.112V47.232h-4.73v14.931C61.001,62.159,62.583,62.139,64.133,62.112z"/>
	</g>
	<g>
		<path fill="#231F20" d="M39.382,94.345v11.876c0,0,1.903,2.269,7.977,3.084c6.076,0.815,30.285,0.362,33.278,10.065v-11.968
			c0,0,0.179-3.086-6.892-5.805C66.674,98.878,44.82,100.147,39.382,94.345z"/>
	</g>
	<g>
		<path fill="#231F20" d="M60.922,98.503c1.09,0.102,2.162,0.202,3.211,0.307V76.982c-0.723,0.012-1.447,0.025-2.16,0.041
			c-0.847,0.019-1.71,0.034-2.57,0.05v21.287C59.916,98.407,60.423,98.455,60.922,98.503z"/>
	</g>
	<g>
		<path fill="#231F20" d="M49.446,126.53v10.339c0,0,1.269,1.724,2.812,2.537c1.54,0.817,15.142,5.532,17.317,10.881
			c0,0-0.453-10.154-3.716-13.327C62.595,133.783,56.22,134.959,49.446,126.53z"/>
	</g>
	<g>
		<g>
			<path fill="#231F20" d="M61.526,133.495c0.932,0.334,1.802,0.65,2.607,1.023v-22.562c-1.584-0.243-3.178-0.437-4.73-0.594v17.454
				v3.878C60.141,132.996,60.852,133.253,61.526,133.495z"/>
		</g>
		<g>
			<path fill="#231F20" d="M59.415,143.761v5.815c0,1.256,1.087,2.411,2.376,2.411h2.329l0.013,0.038v-0.038v-5.613
				C62.669,145.428,61.019,144.542,59.415,143.761z"/>
		</g>
	</g>
	<g>
		<path fill="#231F20" d="M58.298,117.462c-2.603,0.85-4.815,1.724-5.86,2.542c-3.354,2.63-2.992,6.526-2.992,6.526
			c1.085,1.353,2.16,2.435,3.214,3.352c1.1-0.875,3.156-1.674,5.638-2.397V117.462z"/>
		<path fill="#231F20" d="M80.638,119.37c-0.929-3.011-3.898-5.04-7.734-6.437c-0.747,0.541-3.962,1.428-7.666,2.469v10.405
			c5.118-1.069,10.188-1.888,12.134-2.449C81.452,122.179,80.638,119.37,80.638,119.37z"/>
	</g>
	<g>
		<path fill="#231F20" d="M87.89,83.285c-0.504-3.039-2.643-4.868-5.784-5.953c-0.818,1.2-8.554,2.722-16.868,4.342v11.384
			c6.57-1.171,13.079-2.257,16.396-3.429C89.342,86.911,87.89,83.285,87.89,83.285z"/>
		<path fill="#231F20" d="M58.298,83.048c-5.78,1.173-10.966,2.367-13.294,3.5c-6.528,3.172-5.622,7.796-5.622,7.796
			c1.497,1.599,4.243,2.657,7.576,3.414c1.976-1.286,6.311-2.395,11.34-3.405V83.048z"/>
	</g>
</g>
</svg>
