<?xml version="1.0" encoding="utf-8"?>
<!-- Generator: Adobe Illustrator 16.0.4, SVG Export Plug-In . SVG Version: 6.00 Build 0)  -->
<!DOCTYPE svg PUBLIC "-//W3C//DTD SVG 1.1//EN" "http://www.w3.org/Graphics/SVG/1.1/DTD/svg11.dtd">
<svg version="1.1" id="Layer_1" xmlns="http://www.w3.org/2000/svg" xmlns:xlink="http://www.w3.org/1999/xlink" x="0px" y="0px"
	 width="240px" height="180px" viewBox="0 0 240 180" enable-background="new 0 0 240 180" xml:space="preserve">
<g>
	<g>
		<path fill="#FFFFFF" d="M99.557,62.812h11.222l11.391,43.061l11.055-43.061h17.206v56.529h-10.89V73.702l-11.555,45.639h-11.803
			l-11.556-45.639v45.639H93.736v-50.46C93.736,65.639,96.316,62.812,99.557,62.812z"/>
		<path fill="#FFFFFF" d="M186.175,62.812h5.735v39.485c0,2.994-0.248,5.651-0.663,7.815c-1.915,7.231-8.645,10.059-17.044,10.059
			c-8.145,0-15.21-2.827-17.205-9.562c-0.583-1.328-0.833-4.072-0.833-8.312V97.89h11.057v6.816c0,3.992,2.243,5.987,6.817,5.987
			c4.238,0,6.315-2.161,6.315-6.483V68.713C180.354,65.639,183.018,62.812,186.175,62.812z"/>
		<path fill="#FFFFFF" d="M222.084,106.87h-24.523V96.646l21.447-33.834h8.563c3.821,0,5.737,1.995,5.737,5.902v28.679h6.813v9.478
			h-6.813v12.471h-11.225V106.87z M222.25,72.87l-15.712,24.856h15.712V72.87z"/>
	</g>
	<g>
		<path fill="#FFFFFF" d="M93.792,126.226h3.569l9.294,21.403l9.297-21.403h3.388v25.511h-2.379v-22.484h-0.072l-9.728,22.484
			h-1.046l-9.874-22.484h-0.072v22.484h-2.378V126.226z"/>
		<path fill="#FFFFFF" d="M139.302,126.226h15.603v2.161H141.68v9.079h12.395v2.162H141.68v9.947h13.798v2.161h-16.176V126.226z"/>
		<path fill="#FFFFFF" d="M175.439,126.226h7.89c2.209,0,4.084,0.271,5.622,0.81c1.538,0.54,2.817,1.233,3.835,2.071
			c1.023,0.843,1.827,1.772,2.416,2.794c0.588,1.019,1.021,1.999,1.296,2.938c0.276,0.935,0.453,1.781,0.521,2.538
			c0.073,0.759,0.111,1.293,0.111,1.604c0,0.315-0.038,0.848-0.111,1.604c-0.068,0.757-0.245,1.603-0.521,2.539
			c-0.274,0.939-0.708,1.918-1.296,2.938c-0.589,1.02-1.393,1.95-2.416,2.793c-1.018,0.839-2.297,1.532-3.835,2.071
			c-1.538,0.541-3.413,0.811-5.622,0.811h-7.89V126.226z M177.814,149.575h4.901c1.682,0,3.257-0.211,4.722-0.632
			c1.464-0.419,2.737-1.062,3.819-1.928c1.079-0.862,1.935-1.963,2.559-3.296c0.626-1.334,0.938-2.913,0.938-4.74
			c0-1.825-0.312-3.404-0.938-4.737c-0.624-1.332-1.479-2.435-2.559-3.297c-1.082-0.864-2.355-1.508-3.819-1.928
			c-1.465-0.422-3.04-0.631-4.722-0.631h-4.901V149.575z"/>
		<path fill="#FFFFFF" d="M219.363,147.016c0.624,1.082,1.437,1.887,2.431,2.415c0.997,0.53,2.133,0.793,3.407,0.793
			c0.791,0,1.536-0.122,2.232-0.36c0.697-0.242,1.304-0.578,1.82-1.009c0.518-0.433,0.926-0.956,1.226-1.568
			c0.301-0.611,0.45-1.302,0.45-2.072c0-0.889-0.186-1.622-0.56-2.196c-0.373-0.577-0.869-1.053-1.495-1.425
			c-0.625-0.373-1.327-0.688-2.106-0.954c-0.781-0.267-1.585-0.529-2.416-0.794c-0.828-0.263-1.634-0.563-2.414-0.898
			c-0.781-0.339-1.482-0.777-2.108-1.318c-0.626-0.539-1.122-1.218-1.494-2.035c-0.374-0.815-0.56-1.824-0.56-3.027
			c0-1.127,0.223-2.132,0.668-3.009c0.444-0.876,1.044-1.608,1.801-2.197c0.758-0.589,1.626-1.034,2.611-1.333
			c0.986-0.302,2.019-0.451,3.1-0.451c1.396,0,2.686,0.247,3.875,0.741c1.189,0.49,2.215,1.313,3.082,2.466l-2.056,1.479
			c-0.601-0.843-1.303-1.472-2.106-1.894c-0.806-0.42-1.761-0.632-2.868-0.632c-0.767,0-1.501,0.104-2.197,0.308
			c-0.694,0.205-1.303,0.504-1.818,0.9c-0.518,0.398-0.932,0.895-1.243,1.497c-0.312,0.601-0.47,1.31-0.47,2.124
			c0,1.276,0.324,2.252,0.975,2.937c0.646,0.686,1.46,1.226,2.435,1.623c0.968,0.396,2.027,0.744,3.168,1.044
			c1.141,0.301,2.198,0.703,3.171,1.208c0.974,0.505,1.783,1.207,2.432,2.107c0.65,0.901,0.975,2.145,0.975,3.729
			c0,1.154-0.218,2.174-0.65,3.064c-0.432,0.889-1.015,1.638-1.747,2.25c-0.731,0.613-1.581,1.076-2.54,1.388
			c-0.963,0.313-1.958,0.469-2.992,0.469c-1.68,0-3.229-0.294-4.645-0.882c-1.418-0.589-2.635-1.579-3.643-2.973L219.363,147.016z"
			/>
	</g>
	<path fill="#FFFFFF" d="M73.846,26.979C62.556,31.015,59.69,49.206,59.69,49.206c43.729,26.052,62.973-33.313,62.973-33.313
		C104.508,29.746,93.765,19.853,73.846,26.979z M111.34,28.765c-0.303,0.271-0.758,0.654-1.376,1.095
		c-1.223,0.891-3.134,1.94-5.537,2.91c-2.403,0.967-5.291,1.882-8.43,2.625c-3.139,0.755-6.516,1.396-9.896,1.962
		c-1.69,0.275-3.381,0.55-5.044,0.819c-1.684,0.251-3.248,0.544-4.73,0.934c-2.958,0.781-5.631,1.629-7.729,2.777
		c-1.049,0.568-1.971,1.168-2.73,1.78c-0.767,0.606-1.376,1.218-1.852,1.754c-0.469,0.542-0.803,1.009-1.015,1.339
		c-0.217,0.333-0.304,0.519-0.304,0.519c-0.033,0.075-0.121,0.104-0.196,0.07c-0.052-0.022-0.083-0.075-0.083-0.131v-0.006
		c0,0-0.01-0.93,0.631-2.391c0.309-0.734,0.801-1.578,1.49-2.457c0.69-0.879,1.601-1.767,2.702-2.59
		c1.102-0.821,2.397-1.563,3.832-2.168c1.434-0.61,3.01-1.057,4.657-1.333c1.646-0.279,3.371-0.384,5.02-0.547
		c1.672-0.151,3.364-0.317,5.056-0.502c3.379-0.371,6.745-0.809,9.868-1.371c3.122-0.571,6.017-1.206,8.426-1.992
		c2.412-0.768,4.333-1.662,5.598-2.415c0.635-0.372,1.11-0.707,1.424-0.944c0.312-0.242,0.478-0.371,0.478-0.371l0.009-0.006
		c0.062-0.053,0.152-0.039,0.202,0.024c0.048,0.06,0.041,0.145-0.015,0.196C111.794,28.343,111.636,28.489,111.34,28.765z"/>
	<path fill="#FFFFFF" d="M48.941,26.979c-19.92-7.125-30.664,2.768-48.819-11.086c0,0,19.245,59.365,62.973,33.313
		C63.095,49.206,60.23,31.015,48.941,26.979z M60.221,47.363c-0.057,0-0.108-0.036-0.132-0.085c0,0-0.086-0.186-0.303-0.519
		c-0.212-0.33-0.544-0.796-1.015-1.339c-0.475-0.537-1.085-1.148-1.85-1.754c-0.761-0.611-1.683-1.212-2.729-1.78
		c-2.101-1.148-4.775-1.996-7.732-2.777c-1.482-0.39-3.046-0.683-4.73-0.934c-1.664-0.269-3.352-0.544-5.044-0.819
		c-3.38-0.566-6.76-1.208-9.896-1.962c-3.14-0.743-6.026-1.657-8.432-2.625c-2.403-0.971-4.31-2.019-5.537-2.911
		c-0.616-0.439-1.073-0.823-1.374-1.094c-0.299-0.275-0.456-0.421-0.456-0.421c-0.06-0.054-0.062-0.145-0.009-0.207
		c0.051-0.054,0.138-0.06,0.196-0.013l0.007,0.006c0,0,0.166,0.128,0.48,0.371c0.314,0.238,0.789,0.572,1.424,0.944
		c1.264,0.753,3.186,1.647,5.6,2.415c2.408,0.785,5.302,1.421,8.424,1.991c3.125,0.563,6.491,1.001,9.868,1.372
		c1.692,0.185,3.383,0.351,5.054,0.502c1.65,0.163,3.375,0.266,5.02,0.547c1.648,0.277,3.228,0.724,4.658,1.333
		c1.435,0.605,2.73,1.348,3.833,2.168c1.1,0.823,2.012,1.711,2.701,2.59c0.689,0.88,1.181,1.723,1.49,2.457
		c0.641,1.461,0.634,2.391,0.634,2.391v0.006C60.372,47.299,60.303,47.363,60.221,47.363z"/>
	<g>
		<path fill="#FFFFFF" d="M87.766,83.296V71.148c0,0,0.544-6.8-11.696-7.798c-12.24-0.997-33.273,2.69-44.066-6.378v13.512
			c0,0,1.771,2.421,12.003,4.664C58.026,78.22,85.771,71.239,87.766,83.296z"/>
	</g>
	<g>
		<path fill="#FFFFFF" d="M64.008,62.126V47.245h-4.73v14.932C60.875,62.173,62.457,62.153,64.008,62.126z"/>
	</g>
	<g>
		<path fill="#FFFFFF" d="M39.256,94.358v11.875c0,0,1.906,2.269,7.979,3.085c6.077,0.816,30.284,0.361,33.276,10.065v-11.97
			c0,0,0.179-3.084-6.891-5.803C66.549,98.892,44.696,100.16,39.256,94.358z"/>
	</g>
	<g>
		<path fill="#FFFFFF" d="M60.798,98.514c1.089,0.103,2.161,0.204,3.21,0.309V76.994c-0.722,0.014-1.448,0.028-2.16,0.043
			c-0.848,0.017-1.711,0.035-2.571,0.049v21.286C59.791,98.422,60.299,98.47,60.798,98.514z"/>
	</g>
	<g>
		<path fill="#FFFFFF" d="M49.322,126.545v10.338c0,0,1.268,1.723,2.811,2.537c1.541,0.816,15.142,5.531,17.317,10.88
			c0,0-0.453-10.154-3.715-13.327C62.469,133.797,56.095,134.973,49.322,126.545z"/>
	</g>
	<g>
		<g>
			<path fill="#FFFFFF" d="M61.402,133.508c0.933,0.335,1.802,0.65,2.606,1.024V111.97c-1.584-0.244-3.177-0.435-4.73-0.594v17.454
				v3.877C60.016,133.009,60.726,133.266,61.402,133.508z"/>
		</g>
		<g>
			<path fill="#FFFFFF" d="M59.292,143.773v5.815c0,1.257,1.085,2.41,2.375,2.41h2.33l0.012,0.041v-0.041v-5.611
				C62.543,145.44,60.892,144.554,59.292,143.773z"/>
		</g>
	</g>
	<g>
		<path fill="#FFFFFF" d="M58.172,117.477c-2.602,0.851-4.812,1.722-5.858,2.541c-3.355,2.629-2.992,6.527-2.992,6.527
			c1.085,1.352,2.16,2.437,3.213,3.35c1.101-0.876,3.155-1.674,5.637-2.396V117.477z"/>
		<path fill="#FFFFFF" d="M80.512,119.384c-0.927-3.01-3.897-5.041-7.734-6.437c-0.746,0.541-3.962,1.426-7.664,2.469v10.404
			c5.118-1.068,10.188-1.886,12.133-2.448C81.328,122.191,80.512,119.384,80.512,119.384z"/>
	</g>
	<g>
		<path fill="#FFFFFF" d="M87.766,83.296c-0.503-3.037-2.644-4.866-5.785-5.951c-0.817,1.201-8.553,2.723-16.866,4.343V93.07
			c6.568-1.169,13.077-2.256,16.394-3.427C89.217,86.925,87.766,83.296,87.766,83.296z"/>
		<path fill="#FFFFFF" d="M58.172,83.059c-5.778,1.176-10.964,2.369-13.293,3.501c-6.526,3.173-5.623,7.798-5.623,7.798
			c1.499,1.598,4.245,2.657,7.579,3.414c1.973-1.289,6.308-2.393,11.337-3.405V83.059z"/>
	</g>
</g>
</svg>
