<?xml version="1.0" encoding="utf-8"?>
<!-- Generator: Adobe Illustrator 16.0.4, SVG Export Plug-In . SVG Version: 6.00 Build 0)  -->
<!DOCTYPE svg PUBLIC "-//W3C//DTD SVG 1.1//EN" "http://www.w3.org/Graphics/SVG/1.1/DTD/svg11.dtd">
<svg version="1.1" id="Layer_1" xmlns="http://www.w3.org/2000/svg" xmlns:xlink="http://www.w3.org/1999/xlink" x="0px" y="0px"
	 width="240px" height="180px" viewBox="0 0 240 180" enable-background="new 0 0 240 180" xml:space="preserve">
<g>
	<path fill="#9E925A" d="M87.641,89.626c-0.503-3.039-2.642-4.865-5.783-5.952c-1.626,2.388-30.579,6.043-37.103,9.214
		c-6.527,3.175-5.621,7.797-5.621,7.797c1.498,1.598,4.259,2.648,7.593,3.404c5.314-3.438,27.471-5.578,34.658-8.117
		C89.095,93.254,87.641,89.626,87.641,89.626z"/>
	<g>
		<path fill="#9E925A" d="M80.39,125.714c-0.929-3.01-3.897-5.04-7.733-6.438c-1.75,1.27-17.112,4.442-20.465,7.071
			c-3.354,2.629-2.995,6.526-2.995,6.526c1.094,1.359,2.174,2.45,3.235,3.367c3.983-3.206,20.746-5.399,24.689-6.54
			C81.204,128.523,80.39,125.714,80.39,125.714z"/>
		<path fill="#9E925A" d="M49.197,134.076v-1.202C49.197,132.874,49.173,133.395,49.197,134.076z"/>
	</g>
	<path fill="#8BC53F" d="M73.722,33.307c-6.822,2.44-10.555,10.038-12.451,15.676c-1.896-5.638-5.631-13.235-12.455-15.676
		C28.898,26.182,18.153,36.075,0,22.222c0,0,18.12,55.894,59.155,35.401v77.537v6.068c0.004,0.07,0.014,0.129,0.014,0.199v14.49
		c0,1.257,1.086,2.413,2.375,2.413h2.33l0.012,0.039v-0.039v-16.123V57.866c40.681,19.797,58.655-35.645,58.655-35.645
		C104.384,36.075,93.639,26.182,73.722,33.307z"/>
	<g>
		<path fill="#9E925A" d="M99.434,69.142h11.225l11.388,43.059l11.056-43.059h17.206v56.527h-10.89V80.032l-11.555,45.637H116.06
			l-11.555-45.637v45.637H93.614V75.211C93.614,71.968,96.192,69.142,99.434,69.142z"/>
		<path fill="#9E925A" d="M186.053,69.142h5.735v39.484c0,2.995-0.25,5.653-0.664,7.813c-1.914,7.232-8.647,10.062-17.043,10.062
			c-8.146,0-15.211-2.829-17.206-9.56c-0.582-1.333-0.832-4.075-0.832-8.315v-4.406h11.058v6.816c0,3.993,2.239,5.989,6.815,5.989
			c4.238,0,6.317-2.163,6.317-6.486V75.044C180.233,71.968,182.896,69.142,186.053,69.142z"/>
		<path fill="#9E925A" d="M221.961,113.199h-24.522v-10.224l21.447-33.834h8.562c3.821,0,5.735,1.995,5.735,5.903v28.678H240v9.477
			h-6.816v12.47h-11.223V113.199z M222.128,79.2l-15.713,24.855h15.713V79.2z"/>
	</g>
	<path fill="#9E925A" d="M93.668,132.555h3.567l9.295,21.404l9.297-21.404h3.389v25.511h-2.38v-22.484h-0.072l-9.727,22.484h-1.045
		l-9.875-22.484h-0.074v22.484h-2.376V132.555z"/>
	<path fill="#9E925A" d="M139.178,132.555h15.604v2.161h-13.227v9.079h12.396v2.165h-12.396v9.946h13.801v2.159h-16.179V132.555z"/>
	<path fill="#9E925A" d="M175.317,132.555h7.889c2.207,0,4.084,0.271,5.623,0.811c1.537,0.541,2.815,1.23,3.835,2.071
		c1.022,0.842,1.827,1.772,2.416,2.794c0.586,1.021,1.02,2,1.296,2.937c0.275,0.937,0.452,1.783,0.522,2.539
		c0.072,0.758,0.108,1.292,0.108,1.604c0,0.312-0.036,0.846-0.108,1.604c-0.07,0.758-0.247,1.601-0.522,2.539
		c-0.276,0.938-0.71,1.918-1.296,2.938c-0.589,1.02-1.394,1.95-2.416,2.792c-1.02,0.839-2.298,1.532-3.835,2.073
		c-1.539,0.538-3.416,0.809-5.623,0.809h-7.889V132.555z M177.691,155.906h4.902c1.683,0,3.255-0.212,4.722-0.633
		c1.464-0.421,2.737-1.063,3.819-1.928c1.079-0.863,1.934-1.961,2.558-3.296c0.626-1.335,0.935-2.914,0.935-4.739
		c0-1.828-0.309-3.403-0.935-4.738c-0.624-1.333-1.479-2.433-2.558-3.3c-1.082-0.86-2.355-1.505-3.819-1.925
		c-1.467-0.424-3.039-0.632-4.722-0.632h-4.902V155.906z"/>
	<path fill="#9E925A" d="M219.239,153.346c0.623,1.08,1.438,1.889,2.433,2.414c0.998,0.529,2.131,0.795,3.408,0.795
		c0.79,0,1.534-0.121,2.232-0.362c0.695-0.239,1.302-0.575,1.818-1.009c0.519-0.432,0.925-0.954,1.226-1.565
		c0.302-0.615,0.449-1.305,0.449-2.074c0-0.89-0.185-1.622-0.558-2.199c-0.373-0.573-0.869-1.05-1.496-1.422
		c-0.623-0.372-1.327-0.69-2.106-0.954c-0.781-0.267-1.585-0.531-2.415-0.793c-0.829-0.265-1.636-0.565-2.415-0.901
		s-1.482-0.774-2.107-1.315c-0.627-0.542-1.124-1.219-1.497-2.037c-0.368-0.817-0.558-1.824-0.558-3.027
		c0-1.128,0.224-2.131,0.667-3.007c0.443-0.877,1.043-1.609,1.803-2.195c0.756-0.593,1.626-1.036,2.611-1.336
		c0.984-0.3,2.019-0.45,3.097-0.45c1.397,0,2.688,0.247,3.877,0.74c1.191,0.489,2.215,1.313,3.082,2.468l-2.056,1.477
		c-0.599-0.839-1.303-1.474-2.108-1.893c-0.803-0.42-1.761-0.632-2.864-0.632c-0.768,0-1.502,0.104-2.199,0.308
		c-0.694,0.204-1.302,0.506-1.819,0.901c-0.517,0.396-0.931,0.894-1.243,1.494c-0.312,0.603-0.467,1.31-0.467,2.125
		c0,1.275,0.321,2.253,0.972,2.937c0.647,0.686,1.462,1.229,2.436,1.622c0.968,0.396,2.028,0.747,3.168,1.047
		c1.139,0.298,2.198,0.702,3.172,1.207c0.973,0.504,1.783,1.207,2.432,2.106c0.647,0.901,0.972,2.147,0.972,3.73
		c0,1.153-0.217,2.173-0.646,3.064c-0.434,0.889-1.017,1.638-1.747,2.25c-0.734,0.612-1.579,1.076-2.543,1.388
		c-0.962,0.312-1.955,0.468-2.99,0.468c-1.681,0-3.229-0.293-4.646-0.882c-1.421-0.589-2.633-1.58-3.642-2.972L219.239,153.346z"/>
	<path fill="#FFC51C" d="M87.641,89.626V77.477c0,0,0.546-6.799-11.695-7.798c-12.239-0.997-33.274,2.691-44.065-6.378v13.512
		c0,0,1.772,2.423,12.004,4.665C57.903,84.55,85.647,77.568,87.641,89.626z"/>
	<path fill="#FFC51C" d="M39.134,100.686v11.88c0,0,1.904,2.268,7.978,3.082c6.076,0.815,30.284,0.363,33.277,10.066v-11.971
		c0,0,0.179-3.084-6.894-5.803C66.425,105.221,44.575,106.49,39.134,100.686z"/>
	<path fill="#FFC51C" d="M49.197,132.874v10.339c0,0,1.269,1.724,2.812,2.537c1.543,0.816,15.144,5.532,17.318,10.881
		c0,0-0.453-10.156-3.719-13.328C62.345,140.125,55.972,141.303,49.197,132.874z"/>
	<path fill="#FFFFFF" d="M62.292,53.539c0,0,0.002-0.933,0.642-2.386c0.297-0.74,0.804-1.57,1.484-2.458
		c0.701-0.86,1.591-1.779,2.705-2.58c0.539-0.433,1.148-0.805,1.792-1.162c0.63-0.398,1.323-0.695,2.042-0.999
		c0.708-0.334,1.476-0.529,2.242-0.806c0.779-0.231,1.593-0.352,2.41-0.535c1.647-0.268,3.369-0.402,5.019-0.56
		c1.667-0.167,3.359-0.336,5.054-0.505c6.754-0.726,13.461-1.818,18.292-3.359c1.212-0.37,2.289-0.803,3.235-1.201
		c0.937-0.423,1.737-0.822,2.361-1.216c0.657-0.346,1.094-0.729,1.418-0.954c0.319-0.235,0.49-0.362,0.49-0.362l0.016-0.009
		c0.064-0.047,0.155-0.033,0.202,0.031c0.044,0.06,0.035,0.146-0.021,0.194c0,0-0.164,0.14-0.47,0.406
		c-0.313,0.252-0.737,0.684-1.375,1.088c-0.61,0.453-1.395,0.923-2.322,1.43c-0.935,0.482-2.003,1.013-3.208,1.483
		c-1.197,0.497-2.522,0.965-3.937,1.403c-1.411,0.457-2.919,0.868-4.489,1.235c-3.138,0.756-6.515,1.397-9.894,1.966
		c-3.355,0.593-6.843,0.997-9.77,1.758c-2.961,0.777-5.629,1.634-7.727,2.784c-2.118,1.108-3.637,2.449-4.589,3.523
		c-0.956,1.084-1.317,1.86-1.317,1.86c-0.035,0.073-0.123,0.104-0.196,0.071C62.326,53.656,62.292,53.594,62.292,53.539z"/>
	<path fill="#FFFFFF" d="M59.967,53.609c0,0-0.363-0.776-1.317-1.86c-0.954-1.074-2.472-2.415-4.591-3.523
		c-2.099-1.15-4.767-2.007-7.728-2.784c-2.926-0.761-6.412-1.166-9.77-1.758c-3.379-0.569-6.758-1.21-9.896-1.966
		c-1.57-0.367-3.077-0.779-4.486-1.235c-1.417-0.438-2.74-0.906-3.937-1.403c-1.204-0.47-2.275-1.001-3.208-1.483
		c-0.927-0.507-1.714-0.978-2.322-1.43c-0.642-0.404-1.063-0.835-1.378-1.09c-0.305-0.264-0.468-0.404-0.468-0.404
		c-0.06-0.052-0.066-0.144-0.016-0.204c0.051-0.056,0.136-0.066,0.196-0.021l0.016,0.009c0,0,0.169,0.126,0.487,0.362
		c0.327,0.225,0.762,0.608,1.418,0.954c0.624,0.394,1.426,0.792,2.363,1.216c0.946,0.398,2.021,0.832,3.233,1.201
		c4.832,1.541,11.54,2.633,18.293,3.359c1.695,0.169,3.389,0.339,5.054,0.505c1.649,0.158,3.371,0.292,5.019,0.56
		c0.816,0.183,1.63,0.303,2.409,0.535c0.765,0.277,1.533,0.472,2.244,0.806c0.717,0.303,1.411,0.601,2.04,0.999
		c0.643,0.359,1.253,0.729,1.792,1.162c1.115,0.801,2.003,1.72,2.705,2.58c0.68,0.888,1.189,1.718,1.484,2.458
		c0.639,1.454,0.641,2.386,0.643,2.386c0.004,0.082-0.058,0.151-0.14,0.155C60.051,53.698,59.994,53.658,59.967,53.609z"/>
</g>
</svg>
